<?xml version="1.0" ?><svg id="Layer_1" style="enable-background:new 0 0 32 32;" fill="#fff" version="1.1" viewBox="0 0 32 32" xml:space="preserve" xmlns="http://www.w3.org/2000/svg" xmlns:xlink="http://www.w3.org/1999/xlink"><g><g><path d="M16,32C9.0439453,32,2.7900391,27.4306641,0.0668945,20.359375c-0.0893555-0.2314453-0.0893555-0.4873047,0-0.71875    C2.7900391,12.5693359,9.0439453,8,16,8s13.2099609,4.5693359,15.9331055,11.640625    c0.0893555,0.2314453,0.0893555,0.4873047,0,0.71875C29.2099609,27.4306641,22.9560547,32,16,32z M2.0761719,20    C4.5683594,26.0878906,9.9956055,30,16,30s11.4316406-3.9121094,13.9238281-10C27.4316406,13.9121094,22.0043945,10,16,10    S4.5683594,13.9121094,2.0761719,20z"/></g><g><path d="M16,14c-3.3137207,0-6,2.6862793-6,6s2.6862793,6,6,6s6-2.6862793,6-6S19.3137207,14,16,14z M14,20.21875    c-1.1045532,0-2-0.8954468-2-2c0-1.1046143,0.8954468-2,2-2s2,0.8953857,2,2C16,19.3233032,15.1045532,20.21875,14,20.21875z"/></g><g><path d="M16,6c-0.5522461,0-1-0.4477539-1-1V1c0-0.5522461,0.4477539-1,1-1s1,0.4477539,1,1v4C17,5.5522461,16.5522461,6,16,6z"/></g><g><path d="M7.8286133,6.8286133c-0.2558594,0-0.5117188-0.0976563-0.7070313-0.2929688L4.2929688,3.7070313    c-0.390625-0.390625-0.390625-1.0234375,0-1.4140625s1.0234375-0.390625,1.4140625,0L8.5356445,5.121582    c0.390625,0.390625,0.390625,1.0234375,0,1.4140625C8.340332,6.730957,8.0844727,6.8286133,7.8286133,6.8286133z"/></g><g><path d="M24.1713867,6.8286133c-0.2558594,0-0.5117188-0.0976563-0.7070313-0.2929688    c-0.390625-0.390625-0.390625-1.0234375,0-1.4140625l2.8286133-2.8286133c0.390625-0.390625,1.0234375-0.390625,1.4140625,0    s0.390625,1.0234375,0,1.4140625L24.878418,6.5356445C24.6831055,6.730957,24.4272461,6.8286133,24.1713867,6.8286133z"/></g></g></svg>
